# Vertices
v 0 0 -1
v 0.8660254037844386 0.5 -0.6767766952966369
v 0 1 -0.35355339059327373
v -0.8660254037844386 0.5 -0.6767766952966369
v -0.8660254037844386 -0.5 -0.35355339059327373
v 0 -1 -0.6767766952966369
v 0.8660254037844386 -0.5 -0.35355339059327373
v 0.8660254037844386 0.5 0.35355339059327373
v 0 1 0.6767766952966369
v -0.8660254037844386 0.5 0.35355339059327373
v -0.8660254037844386 -0.5 0.6767766952966369
v 0 -1 0.35355339059327373
v 0.8660254037844386 -0.5 0.6767766952966369
v 0 0 1

# Normals
vn 0 0.5428888213891885 -0.8398045770360255
vn -0.47015551075363 -0.27144441069459424 -0.8398045770360255
vn 0.47015551075363 -0.27144441069459424 -0.8398045770360255
vn 0.5000000000000001 0.8660254037844387 0
vn -0.5000000000000001 0.8660254037844387 0
vn -1 0 0
vn -0.5000000000000001 -0.8660254037844387 0
vn 0.5000000000000001 -0.8660254037844387 0
vn 1 0 0
vn -0.47015551075363 0.27144441069459424 0.8398045770360255
vn 0 -0.5428888213891885 0.8398045770360255
vn 0.47015551075363 0.27144441069459424 0.8398045770360255

# Faces
f 4//1 3//1 2//1 1//1
f 6//2 5//2 4//2 1//2
f 2//3 7//3 6//3 1//3
f 2//4 3//4 9//4 8//4
f 3//5 4//5 10//5 9//5
f 4//6 5//6 11//6 10//6
f 5//7 6//7 12//7 11//7
f 6//8 7//8 13//8 12//8
f 7//9 2//9 8//9 13//9
f 9//10 10//10 11//10 14//10
f 11//11 12//11 13//11 14//11
f 13//12 8//12 9//12 14//12
